<svg xmlns="http://www.w3.org/2000/svg" version="1.1" xmlns:xlink="http://www.w3.org/1999/xlink" xmlns:svgjs="http://svgjs.dev/svgjs" width="100%" height="100%" viewBox="0 0 1000 600"><rect width="1000" height="600" x="0" y="0" fill="#11111"/><g><circle r="166.66666666666666" cx="419.0189768473307" cy="441.24123274387546" fill="#ffff" transform="matrix(0.4953392239250135,0,0,0.4953392239250135,0,81.4359204288704)"/><path d="M416.1767024906311 445.2664169442403L416.1767024906311 445.2664169442403L416.1767024906311 496.59172072242865Q416.1767024906311 500.8633529190768 413.6794405910522 503.8206367475256Q411.2150374006782 506.77792057597435 406.2533723107253 509.1437476387334L406.2533723107253 509.1437476387334Q400.3388046538278 512.199607594797 389.9225938358472 514.2039888563013Q379.5063830178666 516.2412288270104 368.8601612354511 516.2412288270104L368.8601612354511 516.2412288270104Q346.84482606811036 516.2412288270104 329.95544953674755 508.1908450717887Q313.03321429617966 500.14046131656715 303.5699060451437 483.57967187725416Q294.10659779410764 467.01888243794116 294.10659779410764 441.45480667646194L294.10659779410764 441.45480667646194Q294.10659779410764 416.1536005886226 303.9313518463985 399.4613763124896Q313.72324718948437 382.80201074556163 330.0540256643625 374.5216160259052Q346.3848041392406 366.24122130624863 365.7714425701824 366.24122130624863L365.7714425701824 366.24122130624863Q379.2763720534317 366.24122130624863 389.4297131977724 369.0670702978775Q399.6159130513181 371.9257779987113 405.3004697437807 376.1645514861545Q410.9850264362433 380.43618368280266 410.9850264362433 384.9378268438858L410.9850264362433 384.9378268438858Q410.9850264362433 387.99368679994944 409.07922130235414 390.4909486995284Q407.17341616846494 392.9553518899024 404.57757814127103 394.1382654212819L404.57757814127103 394.1382654212819Q398.20298855550374 389.89949193383865 389.4297131977724 386.2193165028802Q380.68929654924614 382.57199978112675 366.95435610156187 382.57199978112675L366.95435610156187 382.57199978112675Q352.0693608317032 382.57199978112675 340.01021455347325 389.176600331329Q327.9182095660384 395.8140595907362 320.95216321458133 408.92468456352566Q313.98611686312427 422.0681682455201 313.98611686312427 441.45480667646194L313.98611686312427 441.45480667646194Q313.98611686312427 461.82720638355335 321.1821741790162 474.7078203919079Q328.4110902041132 487.58843440026243 340.9302584112129 493.7658717307998Q353.4822853275176 499.9104503521323 369.090172199886 499.9104503521323L369.090172199886 499.9104503521323Q377.6005778839774 499.9104503521323 385.1909397103292 498.49752585631785Q392.74844282747597 497.0517426512984 397.02007502412425 494.94878526217934L397.02007502412425 494.94878526217934L397.02007502412425 451.4109955655727L361.3026581183043 451.4109955655727Q360.5797665157946 450.2280820341932 359.8568749132849 448.223700772689Q359.1668420199802 446.18646080197993 359.1668420199802 443.8206337392209L359.1668420199802 443.8206337392209Q359.1668420199802 439.81187121621264 361.0397884446644 437.57747899027356Q362.9455935785536 435.3102280551295 366.4943341726921 435.3102280551295L366.4943341726921 435.3102280551295L405.9905026370854 435.3102280551295Q410.2621348337336 435.3102280551295 413.21941866218236 438.0375009191434Q416.1767024906311 440.7647737831572 416.1767024906311 445.2664169442403ZM492.1131794633541 500.14046131656715L492.1131794633541 500.14046131656715Q507.9839360093624 500.14046131656715 516.1328958921989 492.9115452914702Q524.2818557750355 485.71548797557824 524.2818557750355 474.34637459065306L524.2818557750355 474.34637459065306Q524.2818557750355 464.65305537518213 518.0387010260881 458.27846578941484Q511.7626875679358 451.8710174944425 498.25775808468643 448.0922659358691L498.25775808468643 448.0922659358691L477.68820612236516 441.9476873145367Q467.76487594245935 438.858968649268 460.4045250805425 434.02873839613505Q453.0770329278306 429.1656494337971 449.1668465324372 421.93673340870015Q445.2895188462488 414.7406760928082 445.2895188462488 405.0473568773373L445.2895188462488 405.0473568773373Q445.2895188462488 386.81077326856996 458.53157865585825 376.5259972874093Q471.7736384654677 366.24122130624863 493.78897363280834 366.24122130624863L493.78897363280834 366.24122130624863Q506.538152804343 366.24122130624863 516.5929178210687 368.9684941702625Q526.6476828377945 371.6629083250713 532.463674367077 375.9345405217196Q538.2468071871547 380.2061727183678 538.2468071871547 384.9378268438858L538.2468071871547 384.9378268438858Q538.2468071871547 387.99368679994944 536.6038717269053 390.4909486995284Q534.928077557451 392.9553518899024 532.3322395302571 394.4011350949218L532.3322395302571 394.4011350949218Q526.4176718733596 389.66948096940376 516.3629068566338 386.12074037526526Q506.3081418399081 382.57199978112675 494.4790065261131 382.57199978112675L494.4790065261131 382.57199978112675Q480.7769247876339 382.57199978112675 472.72654103241223 388.58514356563927Q464.67615727719067 394.6311460593567 464.67615727719067 405.0473568773373L464.67615727719067 405.0473568773373Q464.67615727719067 413.3277515969938 470.4592900972682 418.5194276513816Q476.27528162655074 423.7111037057694 489.2873304717252 427.5227139735478L489.2873304717252 427.5227139735478L503.71230381271425 431.761487460991Q522.4089093503513 436.9860222245838 533.1537072603818 446.9093524044896Q543.9313638796173 456.8326825843954 543.9313638796173 474.34637459065306L543.9313638796173 474.34637459065306Q543.9313638796173 493.04298012829014 530.327858268753 504.6421044776502Q516.7243526578886 516.2412288270104 492.1131794633541 516.2412288270104L492.1131794633541 516.2412288270104Q477.68820612236516 516.2412288270104 466.9105495031297 513.0210753249216Q456.16575159309923 509.833780532038 450.1197490993818 505.00355027890515Q444.10660531486934 500.14046131656715 444.10660531486934 495.4088071910491L444.10660531486934 495.4088071910491Q444.10660531486934 491.40004466804083 446.5710085052433 488.672771804027Q449.0682704048222 485.9454989400131 452.38700003452584 484.76258540863364L452.38700003452584 484.76258540863364Q457.80868705334854 489.95426146302145 467.76487594245935 495.0473613897943Q477.68820612236516 500.14046131656715 492.1131794633541 500.14046131656715Z " fill="#11111" transform="matrix(0.4953392239250135,0,0,0.4953392239250135,0,81.4359204288704)"/><path d="M764.8157873924621 428.2577348875014L764.8157873924621 428.2577348875014L764.8157873924621 468.53623022448136Q764.8157873924621 471.8884737544477 762.8560142518663 474.20925773673207Q760.9220275999628 476.5300417190165 757.0282678074634 478.386668904844L757.0282678074634 478.386668904844Q752.3866998428946 480.7848123532045 744.2123829275151 482.35778816341946Q736.0380660121358 483.9565504623265 727.6832436759121 483.9565504623265L727.6832436759121 483.9565504623265Q710.4062962522394 483.9565504623265 697.1520410645264 477.63886073277456Q683.8719993881214 471.3211710032226 676.4454906448113 458.32478070243013Q669.0189819015013 445.3283904016376 669.0189819015013 425.26650219922374L669.0189819015013 425.26650219922374Q669.0189819015013 405.4109059063463 676.7291420204239 392.3113696507855Q684.4135156506543 379.2376198839168 697.2294005306026 372.7394247335206Q710.0452854105507 366.2412295831243 725.2593137388594 366.2412295831243L725.2593137388594 366.2412295831243Q735.8575605912914 366.2412295831243 743.8255855971345 368.4588676106405Q751.8193970916695 370.70229212684876 756.280459635394 374.02874916812306Q760.7415221791184 377.38099269808936 760.7415221791184 380.9137416489L760.7415221791184 380.9137416489Q760.7415221791184 383.31188509726053 759.2459058349796 385.27165823785623Q757.7502894908407 387.20564488975987 755.7131568841689 388.1339584826737L755.7131568841689 388.1339584826737Q750.7105780779115 384.8075014413993 743.8255855971345 381.91941470788987Q736.9663796050495 379.05711446307254 726.1876273317732 379.05711446307254L726.1876273317732 379.05711446307254Q714.5063479542752 379.05711446307254 705.0427066042932 384.2401986901743Q695.5532787656193 389.44906940596815 690.0865431629051 399.73787839409556Q684.6198075601908 410.052473870915 684.6198075601908 425.26650219922374L684.6198075601908 425.26650219922374Q684.6198075601908 441.25412518829387 690.2670485837493 451.36242875557696Q695.9400760960001 461.47073232286004 705.7647282876707 466.3185921969652Q715.6151669680332 471.1406655823783 727.8637490967564 471.1406655823783L727.8637490967564 471.1406655823783Q734.542449667997 471.1406655823783 740.4991285558601 470.0318465686202Q746.4300209550314 468.89724106617007 749.7822644849978 467.24690578987895L749.7822644849978 467.24690578987895L749.7822644849978 433.0798082729145L721.7523512767408 433.0798082729145Q721.1850485255158 432.1514946800007 720.6177457742906 430.57851886978574Q720.0762295117577 428.97975657087875 720.0762295117577 427.12312938505124L720.0762295117577 427.12312938505124Q720.0762295117577 423.9771777646213 721.5460593672044 422.22369653356196Q723.0416757113433 420.4444288138106 725.8266164900845 420.4444288138106L725.8266164900845 420.4444288138106L756.821975897927 420.4444288138106Q760.1742194278934 420.4444288138106 762.4950034101777 422.5847073752507Q764.8157873924621 424.7249859366907 764.8157873924621 428.2577348875014ZM823.6605545877171 484.13705588317083L823.6605545877171 484.13705588317083Q806.2288882318923 484.13705588317083 796.6621009271422 477.25206340239384Q787.0953136223922 470.39285741030886 787.0953136223922 457.3964671095163L787.0953136223922 457.3964671095163Q787.0953136223922 445.3283904016376 795.1664845830034 438.9333412060095Q803.2376555436146 432.5125055216894 817.5491567677017 431.22318108708697L817.5491567677017 431.22318108708697L843.9029482109753 428.61874572919004L843.9029482109753 423.40987501339623Q843.9029482109753 414.1267390842587 838.3330666534929 409.87196845007065Q832.7631850960103 405.5914113271906 823.2995437460285 405.5914113271906L823.2995437460285 405.5914113271906Q815.692529581874 405.5914113271906 808.7301776350209 407.8348358433988Q801.7678256881678 410.052473870915 796.3784495515297 412.83741464965624L796.3784495515297 412.83741464965624Q794.8828332073908 411.54809021505383 793.6966547275566 409.76882249530246Q792.4846897590303 408.01534126424315 792.4846897590303 406.15871407841564L792.4846897590303 406.15871407841564Q792.4846897590303 401.33664069300255 797.8740658956684 398.7322053351056L797.8740658956684 398.7322053351056Q802.8766447019259 396.12776997720874 809.4779858070904 394.73529958783814Q816.0535404235628 393.3428291984674 823.4800491668728 393.3428291984674L823.4800491668728 393.3428291984674Q839.6481775767874 393.3428291984674 849.1118189267692 400.5888325209331Q858.5754602767511 407.8348358433988 858.5754602767511 423.40987501339623L858.5754602767511 423.40987501339623L858.5754602767511 467.4274112107233Q858.5754602767511 471.50167642406694 857.0024844665361 473.641954985507Q855.4295086563211 475.78223354694705 852.2577705471991 477.63886073277456L852.2577705471991 477.63886073277456Q847.7967080034747 480.0370041811351 840.3701992601647 482.099923276499Q832.9436905168546 484.13705588317083 823.6605545877171 484.13705588317083ZM823.6605545877171 471.8884737544477L823.6605545877171 471.8884737544477Q831.4738606614079 471.8884737544477 836.5795854224335 470.2897114555407Q841.6853101834591 468.71673564532574 843.9029482109753 467.24690578987895L843.9029482109753 467.24690578987895L843.9029482109753 440.3258115953801L820.8756138089759 442.72395504374066Q811.2314670381496 443.4717632158101 806.5898990735809 447.0045121666207Q801.9483311090122 450.53726111743146 801.9483311090122 457.215961688672L801.9483311090122 457.215961688672Q801.9483311090122 464.075167680757 807.4150667117265 467.9689274732563Q812.9075888031329 471.8884737544477 823.6605545877171 471.8884737544477ZM954.9395685189369 422.12055057879377L954.9395685189369 422.12055057879377L954.9395685189369 443.4717632158101L940.0865510323168 443.4717632158101L940.0865510323168 423.22936959255185Q940.0865510323168 414.1267390842587 934.8003208504468 409.87196845007065Q929.488304179885 405.5914113271906 920.7724710019723 405.5914113271906L920.7724710019723 405.5914113271906Q915.0220840236456 405.5914113271906 909.6327078870074 407.4480385130181Q904.2433317503692 409.30466569884555 900.5300773787142 411.72859563589816L900.5300773787142 411.72859563589816L900.5300773787142 443.4717632158101L885.6770598920942 443.4717632158101L885.6770598920942 412.4764038079676Q885.6770598920942 408.7631494363126 887.2500357023091 406.15871407841564Q888.8487980012162 403.55427872051877 892.7425577937155 401.13034878346616L892.7425577937155 401.13034878346616Q897.745136599973 397.98439716303625 905.4552967188955 395.66361318075184Q913.165456837818 393.3428291984674 920.9529764228167 393.3428291984674L920.9529764228167 393.3428291984674Q930.4166177727986 393.3428291984674 937.6626210952643 396.2309159319769Q944.90862441773 399.09321617679433 948.4413733685407 404.1215814717438L948.4413733685407 404.1215814717438Q949.5501923822987 405.2304004855019 950.2980005543681 406.15871407841564Q951.0458087264376 407.0870276713294 951.7678304098149 408.5568575267762L951.7678304098149 408.5568575267762Q953.0829413331094 410.8002820429844 954.0112549260231 414.3330309937951Q954.9395685189369 417.8399934559137 954.9395685189369 422.12055057879377ZM1009.3232731704676 422.4815614204825L1009.3232731704676 422.4815614204825L1009.3232731704676 443.4717632158101L994.4702556838474 443.4717632158101L994.4702556838474 423.22936959255185Q994.4702556838474 414.1267390842587 989.2871714567458 409.87196845007065Q984.0783007409519 405.5914113271906 975.3624675630393 405.5914113271906L975.3624675630393 405.5914113271906Q968.8642724126431 405.5914113271906 962.8302340587038 408.29899263985567Q956.7961957047644 410.98078746382873 951.9741223193513 415.9833662700862L951.9741223193513 415.9833662700862L946.017443431488 405.2304004855019Q950.8395168169012 400.4083271000888 958.6528228905919 396.87557814927817Q966.4403424755907 393.3428291984674 976.4712865767975 393.3428291984674L976.4712865767975 393.3428291984674Q986.5022306780045 393.3428291984674 993.8255934665464 396.4887808188974Q1001.1747427437801 399.66051892801937 1005.2490079571238 406.15871407841564Q1009.3232731704676 412.6569092288119 1009.3232731704676 422.4815614204825ZM885.6770598920942 475.78223354694705L885.6770598920942 433.6213245354475L900.5300773787142 433.6213245354475L900.5300773787142 481.17160968358525Q899.6017637858005 481.5326205252739 897.745136599973 481.9967773217308Q895.8885094141455 482.46093411818765 893.6708713866293 482.46093411818765L893.6708713866293 482.46093411818765Q889.7771115941299 482.46093411818765 887.714192498766 480.8879583079727Q885.6770598920942 479.31498249775774 885.6770598920942 475.78223354694705L885.6770598920942 475.78223354694705ZM940.0865510323168 475.78223354694705L940.0865510323168 433.6213245354475L954.9395685189369 433.6213245354475L954.9395685189369 481.17160968358525Q954.0112549260231 481.5326205252739 952.0514817854274 481.9967773217308Q950.1174951335238 482.46093411818765 948.0545760381599 482.46093411818765L948.0545760381599 482.46093411818765Q943.9803108248162 482.46093411818765 942.0205376842206 480.8879583079727Q940.0865510323168 479.31498249775774 940.0865510323168 475.78223354694705L940.0865510323168 475.78223354694705ZM994.4702556838474 475.78223354694705L994.4702556838474 433.6213245354475L1009.3232731704676 433.6213245354475L1009.3232731704676 481.17160968358525Q1008.3949595775538 481.5326205252739 1006.46097292565 481.9967773217308Q1004.5011997850544 482.46093411818765 1002.4640671783826 482.46093411818765L1002.4640671783826 482.46093411818765Q998.3898019650389 482.46093411818765 996.4300288244432 480.8879583079727Q994.4702556838474 479.31498249775774 994.4702556838474 475.78223354694705L994.4702556838474 475.78223354694705ZM1104.939573240584 439.3974980024664L1042.5620570945184 448.11333118037885L1041.8142489224488 436.4062653141887L1097.8998618276546 428.79925115003437Q1097.1520536555854 418.5878016279831 1090.8343639260333 412.0122470115107Q1084.5166741964813 405.4109059063463 1073.3769110815165 405.4109059063463L1073.3769110815165 405.4109059063463Q1061.876137124863 405.4109059063463 1054.3464824267844 413.6625822878018Q1046.8426142173985 421.94004515794944 1046.8426142173985 437.3345789071025L1046.8426142173985 437.3345789071025L1046.8426142173985 441.4346306091382Q1048.1319386520008 456.28764809575824 1056.589906942993 463.9978082146808Q1065.0220887452926 471.6821818449113 1079.6946008110685 471.6821818449113L1079.6946008110685 471.6821818449113Q1087.507906884759 471.6821818449113 1093.799810125619 469.10353297570646Q1100.117499855171 466.4990976178095 1103.8307542268258 463.53365141822394L1103.8307542268258 463.53365141822394Q1105.8678868334978 464.82297585282635 1107.0798518020242 466.5764570838857Q1108.2918167705502 468.35572480363703 1108.2918167705502 470.57336283115325L1108.2918167705502 470.57336283115325Q1108.2918167705502 474.1061117819639 1104.2949110232826 477.1747039363177Q1100.2980052760154 480.2432960906715 1093.7224506595428 482.099923276499Q1087.1211095543786 483.9565504623265 1078.9467926389989 483.9565504623265L1078.9467926389989 483.9565504623265Q1064.661077903604 483.9565504623265 1054.16597700594 478.74767974653264Q1043.6708761082764 473.53880903073883 1038.0236350847176 463.25000004261136Q1032.350607572467 452.93540456579194 1032.350607572467 438.0823870791719L1032.350607572467 438.0823870791719Q1032.350607572467 427.50992671543196 1035.4191997268208 419.2324638452843Q1038.4877918811744 410.98078746382873 1043.9545274838888 405.2304004855019Q1049.4470495752953 399.48001350717504 1057.0540637394497 396.41142135282126Q1064.661077903604 393.3428291984674 1073.583202991053 393.3428291984674L1073.583202991053 393.3428291984674Q1084.9034715268622 393.3428291984674 1093.5419452386986 398.1649025838806Q1102.1546324618428 402.98697596929367 1107.0798518020242 411.62544968112996Q1112.0050711422055 420.26392339296626 1112.0050711422055 431.4036865079313L1112.0050711422055 431.4036865079313Q1112.0050711422055 435.477951721275 1110.1484439563778 437.25721944102634Q1108.2918167705502 439.01070067208565 1104.939573240584 439.3974980024664L1104.939573240584 439.3974980024664ZM1166.414562282428 471.3211710032226L1166.414562282428 471.3211710032226Q1178.8436498319954 471.3211710032226 1185.2386990276236 465.64814349097196Q1191.6595347119437 460.00090246741325 1191.6595347119437 451.07877737996444L1191.6595347119437 451.07877737996444Q1191.6595347119437 443.4717632158101 1186.7343153717625 438.4691844095526Q1181.809096031581 433.44081911460313 1171.2366356678413 430.47537291501754L1171.2366356678413 430.47537291501754L1155.0685072579267 425.65329952960445Q1147.280987672928 423.22936959255185 1141.5306006946012 419.4387557548207Q1135.7802137162744 415.6223554283975 1132.7116215619203 409.9493279161468Q1129.6430294075667 404.30208689258814 1129.6430294075667 396.6950727284338L1129.6430294075667 396.6950727284338Q1129.6430294075667 382.3835715043468 1140.0349843504623 374.3124005437356Q1150.426939293358 366.2412295831243 1167.7038867170304 366.2412295831243L1167.7038867170304 366.2412295831243Q1177.7348308182372 366.2412295831243 1185.625496358004 368.38150814456435Q1193.516161897771 370.4960002173123 1198.0545839075717 373.8482437472787Q1202.6187924060641 377.20048727724503 1202.6187924060641 380.9137416489L1202.6187924060641 380.9137416489Q1202.6187924060641 383.31188509726053 1201.30368148277 385.27165823785623Q1200.0143570481673 387.20564488975987 1197.9772244414955 388.34025039221L1197.9772244414955 388.34025039221Q1193.335656476927 384.62699602055505 1185.44499093716 381.84205524181374Q1177.554325397393 379.05711446307254 1168.2711894682557 379.05711446307254L1168.2711894682557 379.05711446307254Q1157.4924371949792 379.05711446307254 1151.1747474654271 383.77604189371743Q1144.857057735875 388.52075581305434 1144.857057735875 396.6950727284338L1144.857057735875 396.6950727284338Q1144.857057735875 403.19326787883006 1149.421266234368 407.2675330921738Q1153.9596882441683 411.34179830551744 1164.1711377662198 414.3330309937951L1164.1711377662198 414.3330309937951L1175.4914063020292 417.6594880350694Q1190.1639183678049 421.7595397371051 1198.621886658797 429.5470593221038Q1207.0540684610967 437.3345789071025 1207.0540684610967 451.07877737996444L1207.0540684610967 451.07877737996444Q1207.0540684610967 465.75128944574016 1196.3784621425884 474.8539199540333Q1185.7028558240804 483.9565504623265 1166.414562282428 483.9565504623265L1166.414562282428 483.9565504623265Q1155.0685072579267 483.9565504623265 1146.6363254556268 481.4294745705057Q1138.1783571646347 478.92818516737697 1133.4594297339897 475.1375713296458Q1128.7147158146527 471.3211710032226 1128.7147158146527 467.60791663156766L1128.7147158146527 467.60791663156766Q1128.7147158146527 464.4619650111377 1130.6744889552485 462.32168644969767Q1132.6084756071523 460.18140788825764 1135.212910965049 459.25309429534383L1135.212910965049 459.25309429534383Q1139.4934680879292 463.32735950868755 1147.280987672928 467.3242652559551Q1155.0685072579267 471.3211710032226 1166.414562282428 471.3211710032226ZM1229.9008974422518 459.0725888744995L1229.9008974422518 432.5125055216894L1244.7539149288718 432.5125055216894L1244.7539149288718 458.14427528158575Q1244.7539149288718 465.5707840248958 1249.034472051752 468.6393761792496Q1253.2892426859398 471.6821818449113 1260.7157514292498 471.6821818449113L1260.7157514292498 471.6821818449113Q1263.887489538372 471.6821818449113 1267.7812493308713 470.57336283115325Q1271.6750091233707 469.46454381739517 1274.2794444812675 467.9689274732563L1274.2794444812675 467.9689274732563Q1275.3882634950255 469.10353297570646 1276.3165770879395 470.7538682519976Q1277.2448906808531 472.42999001698075 1277.2448906808531 474.673414533189L1277.2448906808531 474.673414533189Q1277.2448906808531 478.74767974653264 1272.42281729544 481.3521151044296Q1267.600743910027 483.9565504623265 1259.0396296642666 483.9565504623265L1259.0396296642666 483.9565504623265Q1246.0432393634742 483.9565504623265 1237.972068402863 478.1803769953076Q1229.9008974422518 472.42999001698075 1229.9008974422518 459.0725888744995L1229.9008974422518 459.0725888744995ZM1271.313998281682 409.87196845007065L1237.5079116064062 409.87196845007065L1237.5079116064062 397.62338632134754L1275.2077580741814 397.62338632134754Q1275.7492743367143 398.3454080047249 1276.3165770879395 400.0215297697081Q1276.8838798391644 401.69765153469126 1276.8838798391644 403.55427872051877L1276.8838798391644 403.55427872051877Q1276.8838798391644 406.51972492010435 1275.3882634950255 408.1958466850875Q1273.892647150887 409.87196845007065 1271.313998281682 409.87196845007065L1271.313998281682 409.87196845007065ZM1244.7539149288718 376.2721736843312L1244.7539149288718 438.0823870791719L1229.9008974422518 438.0823870791719L1229.9008974422518 370.8827975476931Q1230.8292110351656 370.4960002173123 1232.7889841757612 370.03184342085547Q1234.722970827665 369.5676866243986 1236.966395343873 369.5676866243986L1236.966395343873 369.5676866243986Q1240.8601551363724 369.5676866243986 1242.7941417882762 371.1664489233056Q1244.7539149288718 372.7394247335206 1244.7539149288718 376.2721736843312L1244.7539149288718 376.2721736843312ZM1375.646131529711 438.649689830397L1375.646131529711 438.649689830397Q1375.646131529711 452.3938883032589 1370.437260813917 462.6053378253102Q1365.2541765868154 472.81678734736147 1355.7905352368334 478.386668904844Q1346.3011073981597 483.9565504623265 1333.5110090069034 483.9565504623265L1333.5110090069034 483.9565504623265Q1320.6951241269553 483.9565504623265 1311.1283368222053 478.386668904844Q1301.5615495174552 472.81678734736147 1296.3784652903532 462.6053378253102Q1291.1695945745596 452.3938883032589 1291.1695945745596 438.649689830397L1291.1695945745596 438.649689830397Q1291.1695945745596 424.7249859366907 1296.4558247564296 414.59089588071555Q1301.7420549382996 404.48259231343246 1311.3088422430496 398.91271075595Q1320.8756295477997 393.3428291984674 1333.5110090069034 393.3428291984674L1333.5110090069034 393.3428291984674Q1346.1206019773153 393.3428291984674 1355.584243327297 398.91271075595Q1365.073671165971 404.48259231343246 1370.359901347841 414.59089588071555Q1375.646131529711 424.7249859366907 1375.646131529711 438.649689830397ZM1333.5110090069034 405.5914113271906L1333.5110090069034 405.5914113271906Q1321.056134968644 405.5914113271906 1313.732772180102 414.4103904598712Q1306.383622902868 423.22936959255185 1306.383622902868 438.649689830397L1306.383622902868 438.649689830397Q1306.383622902868 454.2505154890864 1313.5522667592577 462.96634866699884Q1320.6951241269553 471.6821818449113 1333.5110090069034 471.6821818449113L1333.5110090069034 471.6821818449113Q1346.1206019773153 471.6821818449113 1353.2634593450125 462.8632027122307Q1360.4321032014022 454.0442235795501 1360.4321032014022 438.649689830397L1360.4321032014022 438.649689830397Q1360.4321032014022 423.22936959255185 1353.2634593450125 414.4103904598712Q1346.1206019773153 405.5914113271906 1333.5110090069034 405.5914113271906ZM1413.5264834183304 411.72859563589816L1413.5264834183304 411.72859563589816L1413.5264834183304 441.04783327875754L1398.6734659317103 441.04783327875754L1398.6734659317103 412.83741464965624Q1398.6734659317103 408.5568575267762 1400.246441741925 406.05556812364745Q1401.8194175521403 403.55427872051877 1405.5326719237955 401.13034878346616L1405.5326719237955 401.13034878346616Q1410.3547453092083 397.98439716303625 1418.7095676454323 395.66361318075184Q1427.064389981656 393.3428291984674 1437.2758395037072 393.3428291984674L1437.2758395037072 393.3428291984674Q1452.1288569903272 393.3428291984674 1452.1288569903272 400.76933794177745L1452.1288569903272 400.76933794177745Q1452.1288569903272 402.62596512760496 1451.587340727794 404.19894093781994Q1451.0200379765693 405.7719167480349 1450.0917243836552 406.90652225048507L1450.0917243836552 406.90652225048507Q1448.235097197828 406.51972492010435 1445.2696509982425 406.15871407841564Q1442.3042047986564 405.7719167480349 1439.3387585990713 405.7719167480349L1439.3387585990713 405.7719167480349Q1430.7776443533112 405.7719167480349 1424.2794492029147 407.5511844677863Q1417.7812540525183 409.30466569884555 1413.5264834183304 411.72859563589816ZM1398.6734659317103 475.78223354694705L1398.6734659317103 432.5125055216894L1413.5264834183304 434.7559300378976L1413.5264834183304 481.17160968358525Q1412.5981698254168 481.5326205252739 1410.7415426395892 481.9967773217308Q1408.8849154537616 482.46093411818765 1406.6414909375535 482.46093411818765L1406.6414909375535 482.46093411818765Q1402.7477311450543 482.46093411818765 1400.7105985383823 480.8879583079727Q1398.6734659317103 479.31498249775774 1398.6734659317103 475.78223354694705L1398.6734659317103 475.78223354694705ZM1535.4965749317207 439.3974980024664L1473.119058785655 448.11333118037885L1472.3712506135853 436.4062653141887L1528.4568635187911 428.79925115003437Q1527.709055346722 418.5878016279831 1521.3913656171699 412.0122470115107Q1515.0736758876183 405.4109059063463 1503.933912772653 405.4109059063463L1503.933912772653 405.4109059063463Q1492.4331388159994 405.4109059063463 1484.903484117921 413.6625822878018Q1477.399615908535 421.94004515794944 1477.399615908535 437.3345789071025L1477.399615908535 437.3345789071025L1477.399615908535 441.4346306091382Q1478.6889403431373 456.28764809575824 1487.1469086341294 463.9978082146808Q1495.5790904364294 471.6821818449113 1510.251602502205 471.6821818449113L1510.251602502205 471.6821818449113Q1518.0391220872039 471.6821818449113 1524.3568118167555 469.10353297570646Q1530.6745015463075 466.4990976178095 1534.3877559179627 463.53365141822394L1534.3877559179627 463.53365141822394Q1536.4248885246343 464.82297585282635 1537.6368534931607 466.5764570838857Q1538.8488184616867 468.35572480363703 1538.8488184616867 470.57336283115325L1538.8488184616867 470.57336283115325Q1538.8488184616867 474.1061117819639 1534.8519127144195 477.1747039363177Q1530.855006967152 480.2432960906715 1524.2794523506795 482.099923276499Q1517.678111245515 483.9565504623265 1509.5037943301354 483.9565504623265L1509.5037943301354 483.9565504623265Q1495.2180795947406 483.9565504623265 1484.722978697077 478.74767974653264Q1474.227877799413 473.53880903073883 1468.5806367758541 463.25000004261136Q1462.9076092636037 452.93540456579194 1462.9076092636037 438.0823870791719L1462.9076092636037 438.0823870791719Q1462.9076092636037 427.50992671543196 1465.9762014179573 419.2324638452843Q1469.0447935723114 410.98078746382873 1474.5115291750253 405.2304004855019Q1479.9782647777397 399.48001350717504 1487.6110654305862 396.41142135282126Q1495.2180795947406 393.3428291984674 1504.1144181934974 393.3428291984674L1504.1144181934974 393.3428291984674Q1515.4604732179987 393.3428291984674 1524.073160441143 398.1649025838806Q1532.7116341529795 402.98697596929367 1537.6368534931607 411.62544968112996Q1542.562072833342 420.26392339296626 1542.562072833342 431.4036865079313L1542.562072833342 431.4036865079313Q1542.562072833342 435.477951721275 1540.7054456475144 437.25721944102634Q1538.8488184616867 439.01070067208565 1535.4965749317207 439.3974980024664L1535.4965749317207 439.3974980024664ZM1553.134533197082 473.7451009402752L1553.134533197082 473.7451009402752Q1553.134533197082 469.2840383965508 1555.8421145097473 466.3185921969652Q1558.52390933372 463.32735950868755 1563.3459827191332 463.32735950868755L1563.3459827191332 463.32735950868755Q1568.168056104546 463.32735950868755 1570.7724914624432 466.3185921969652Q1573.37692682034 469.2840383965508 1573.37692682034 473.7451009402752L1573.37692682034 473.7451009402752Q1573.37692682034 477.99987157446327 1570.7724914624432 480.96531777404886Q1568.168056104546 483.9565504623265 1563.3459827191332 483.9565504623265L1563.3459827191332 483.9565504623265Q1558.52390933372 483.9565504623265 1555.8421145097473 480.96531777404886Q1553.134533197082 477.99987157446327 1553.134533197082 473.7451009402752ZM1626.858104367649 483.9565504623265L1626.858104367649 483.9565504623265Q1618.8642928731138 483.9565504623265 1611.901940926261 481.6357664800421Q1604.9395889794077 479.31498249775774 1601.7936373589778 476.5300417190165L1601.7936373589778 476.5300417190165L1601.7936373589778 462.78584324615457Q1605.5068917306326 466.3185921969652 1611.1541327541913 469.00038702093826Q1616.8271602664418 471.6821818449113 1624.795185272285 471.6821818449113L1624.795185272285 471.6821818449113Q1637.7915755730774 471.6821818449113 1645.6822411128446 463.7915163051444Q1653.5729066526114 455.9008507653775 1653.5729066526114 438.4691844095526L1653.5729066526114 438.4691844095526Q1653.5729066526114 426.1948157921375 1649.601787394036 419.05195842444Q1645.6048816467683 411.9091010567425 1639.0035405416038 408.7631494363126Q1632.4279859251315 405.5914113271906 1624.795185272285 405.5914113271906L1624.795185272285 405.5914113271906Q1618.1164847010446 405.5914113271906 1613.4749167364757 407.2675330921738Q1608.833348771907 408.9436548571569 1605.1200944002521 410.98078746382873L1605.1200944002521 410.98078746382873L1605.1200944002521 472.6104954378251L1590.267076913632 472.6104954378251L1590.267076913632 411.34179830551744Q1590.267076913632 407.62854393386243 1591.5821878369266 405.4109059063463Q1592.871512271529 403.19326787883006 1596.9457774848725 400.76933794177745L1596.9457774848725 400.76933794177745Q1601.9741427798222 397.98439716303625 1608.936494726675 395.66361318075184Q1615.8988466735282 393.3428291984674 1624.795185272285 393.3428291984674L1624.795185272285 393.3428291984674Q1637.0695538897003 393.3428291984674 1646.997352036139 398.08754311780444Q1656.9251501825775 402.80647054844934 1662.7786831156727 412.73426869488804Q1668.632216048768 422.68785333001887 1668.632216048768 438.4691844095526L1668.632216048768 438.4691844095526Q1668.632216048768 453.68321273786137 1663.3201993782059 463.7915163051444Q1658.0339691963359 473.92560636111955 1648.5703278463538 478.92818516737697Q1639.1066864963723 483.9565504623265 1626.858104367649 483.9565504623265ZM1598.260888408167 516.2412343047714L1598.260888408167 516.2412343047714Q1594.3671286156678 516.2412343047714 1592.3042095203036 514.5908990284803Q1590.267076913632 512.9147772634972 1590.267076913632 509.3820283126865L1590.267076913632 509.3820283126865L1590.267076913632 467.24690578987895L1605.1200944002521 467.60791663156766L1605.1200944002521 514.951909870169Q1604.191780807338 515.3129207118577 1602.3351536215105 515.7770775083145Q1600.4785264356833 516.2412343047714 1598.260888408167 516.2412343047714ZM1759.4006562447794 439.3974980024664L1697.0231400987136 448.11333118037885L1696.275331926644 436.4062653141887L1752.3609448318498 428.79925115003437Q1751.6131366597806 418.5878016279831 1745.2954469302285 412.0122470115107Q1738.9777572006765 405.4109059063463 1727.8379940857117 405.4109059063463L1727.8379940857117 405.4109059063463Q1716.337220129058 405.4109059063463 1708.8075654309796 413.6625822878018Q1701.3036972215937 421.94004515794944 1701.3036972215937 437.3345789071025L1701.3036972215937 437.3345789071025L1701.3036972215937 441.4346306091382Q1702.593021656196 456.28764809575824 1711.050989947188 463.9978082146808Q1719.483171749488 471.6821818449113 1734.1556838152637 471.6821818449113L1734.1556838152637 471.6821818449113Q1741.9689898889542 471.6821818449113 1748.2608931298141 469.10353297570646Q1754.5785828593662 466.4990976178095 1758.291837231021 463.53365141822394L1758.291837231021 463.53365141822394Q1760.328969837693 464.82297585282635 1761.5409348062194 466.5764570838857Q1762.7528997747454 468.35572480363703 1762.7528997747454 470.57336283115325L1762.7528997747454 470.57336283115325Q1762.7528997747454 474.1061117819639 1758.7559940274782 477.1747039363177Q1754.7590882802106 480.2432960906715 1748.1835336637378 482.099923276499Q1741.5821925585733 483.9565504623265 1733.407875643194 483.9565504623265L1733.407875643194 483.9565504623265Q1719.1221609077993 483.9565504623265 1708.6270600101352 478.74767974653264Q1698.1319591124716 473.53880903073883 1692.4847180889128 463.25000004261136Q1686.811690576662 452.93540456579194 1686.811690576662 438.0823870791719L1686.811690576662 438.0823870791719Q1686.811690576662 427.50992671543196 1689.880282731016 419.2324638452843Q1692.9488748853696 410.98078746382873 1698.415610488084 405.2304004855019Q1703.9081325794905 399.48001350717504 1711.515146743645 396.41142135282126Q1719.1221609077993 393.3428291984674 1728.0442859952482 393.3428291984674L1728.0442859952482 393.3428291984674Q1739.3645545310574 393.3428291984674 1748.0030282428938 398.1649025838806Q1756.6157154660382 402.98697596929367 1761.5409348062194 411.62544968112996Q1766.4661541464006 420.26392339296626 1766.4661541464006 431.4036865079313L1766.4661541464006 431.4036865079313Q1766.4661541464006 435.477951721275 1764.609526960573 437.25721944102634Q1762.7528997747454 439.01070067208565 1759.4006562447794 439.3974980024664L1759.4006562447794 439.3974980024664Z " fill="#ffffff" transform="matrix(0.4953392239250135,0,0,0.4953392239250135,0,81.4359204288704)"/></g></svg>